P2
12 12
255
0 0 0 0 0 0 0 0 0 0 0 0 
0 0 0 184 144 0 0 208 0 0 0 0 
0 0 152 172 160 188 208 216 200 168 0 0 
0 172 188 152 0 0 0 0 204 156 0 0 
0 152 184 0 152 0 0 0 0 0 0 0 
0 220 184 168 192 148 0 0 0 0 0 0 
0 168 160 148 0 0 0 0 148 0 0 0 
0 172 0 0 0 0 0 200 168 144 0 0 
164 216 184 0 0 0 0 156 144 172 156 0 
0 0 164 152 0 0 148 0 172 192 160 0 
0 0 176 216 216 212 204 196 164 0 0 0 
0 0 0 0 148 144 0 0 0 0 0 0 