P2
12 12
255
0 0 0 0 0 0 0 0 0 0 0 0 
0 0 0 0 0 0 0 0 0 0 0 0 
0 0 0 0 0 188 208 220 212 0 0 0 
0 0 0 0 0 0 0 0 212 0 0 0 
0 0 0 0 0 0 0 0 0 0 0 0 
0 0 0 0 0 0 0 0 0 0 0 0 
0 0 0 0 0 0 0 0 0 0 0 0 
0 0 0 0 0 0 0 0 0 0 0 0 
0 0 0 0 0 0 0 0 0 0 0 0 
0 0 180 168 0 0 0 0 0 0 0 0 
0 0 164 224 236 232 220 196 156 0 0 0 
0 0 0 0 0 0 0 0 0 0 0 0 