P2
36 32
255
0 0 0 0 0 0 0 0 0 0 0 0 0 0 0 0 54 63 0 54 63 0 50 63 0 20 51 0 0 20 0 0 0 0 0 0 
0 0 0 0 0 0 0 0 0 0 0 0 0 0 0 0 54 63 0 54 63 0 50 63 0 20 51 0 0 20 0 0 0 0 0 0 
0 0 0 0 0 0 0 0 0 0 0 0 0 0 0 0 54 63 0 54 63 0 50 63 0 20 51 0 0 20 0 0 0 0 0 0 
0 0 0 0 0 0 0 0 0 0 0 0 0 0 0 0 54 63 0 54 63 0 50 63 0 20 51 0 0 20 0 0 0 0 0 0 
0 0 0 0 0 0 0 0 0 0 0 0 0 0 0 0 54 63 0 54 63 0 50 63 0 20 51 0 0 20 0 0 0 0 0 0 
0 0 0 0 0 0 0 0 0 0 0 0 0 0 0 0 54 63 0 54 63 0 50 63 0 20 51 0 0 20 0 0 0 0 0 0 
0 0 0 0 0 0 0 0 0 0 0 0 0 0 0 0 54 63 0 54 63 0 50 63 0 20 51 0 0 20 0 0 0 0 0 0 
0 0 0 0 0 0 0 0 0 0 0 0 0 0 0 0 54 63 0 54 63 0 50 63 0 20 51 0 0 20 0 0 0 0 0 0 
0 0 0 0 0 0 0 0 0 0 0 0 0 0 0 0 54 63 0 54 63 0 50 63 0 20 51 0 0 20 0 0 0 0 0 0 
0 0 0 0 0 0 0 0 0 0 0 0 0 0 0 0 54 63 0 54 63 0 50 63 0 20 51 0 0 20 0 0 0 0 0 0 
0 0 0 0 0 0 0 0 0 0 0 0 0 0 0 0 54 63 0 54 63 0 50 63 0 20 51 0 0 20 0 0 0 0 0 0 
0 0 0 0 0 0 0 0 0 0 0 0 0 0 0 0 54 63 0 54 63 0 50 63 0 20 51 0 0 20 0 0 0 0 0 0 
0 0 0 0 0 0 0 0 0 0 0 0 0 0 0 0 54 63 0 54 63 0 50 63 0 20 51 0 0 20 0 0 0 0 0 0 
0 0 0 0 0 0 0 0 0 0 0 0 0 0 0 0 54 63 0 54 63 0 50 63 0 20 51 0 0 20 0 0 0 0 0 0 
0 0 0 0 0 0 0 0 0 0 0 0 0 0 0 0 54 63 0 54 63 0 50 63 0 20 51 0 0 20 0 0 0 0 0 0 
0 0 0 0 0 0 0 0 0 0 0 0 0 0 0 0 54 63 0 54 63 0 50 63 0 20 51 0 0 20 0 0 0 0 0 0 
0 0 0 0 0 0 0 0 0 0 0 0 0 0 0 0 54 63 0 54 63 0 50 63 0 20 51 0 0 20 0 0 0 0 0 0 
0 0 0 0 0 0 0 0 0 0 0 0 0 0 0 0 54 63 0 54 63 0 50 63 0 20 51 0 0 20 0 0 0 0 0 0 
0 0 0 0 0 0 0 0 0 0 0 0 0 0 0 0 54 63 0 54 63 0 50 63 0 20 51 0 0 20 0 0 0 0 0 0 
0 0 0 0 0 0 0 0 0 0 0 0 0 0 0 0 54 63 0 54 63 0 50 63 0 20 51 0 0 20 0 0 0 0 0 0 
0 0 0 0 0 0 0 0 0 0 0 0 0 0 0 0 54 63 0 54 63 0 50 63 0 20 51 0 0 20 0 0 0 0 0 0 
0 0 0 0 0 0 0 0 0 0 0 0 0 0 0 0 54 63 0 54 63 0 50 63 0 20 51 0 0 20 0 0 0 0 0 0 
0 0 0 0 0 0 0 0 0 0 0 0 0 0 0 0 54 63 0 54 63 0 50 63 0 20 51 0 0 20 0 0 0 0 0 0 
0 0 0 0 0 0 0 0 0 0 0 0 0 0 0 0 54 63 0 54 63 0 50 63 0 20 51 0 0 20 0 0 0 0 0 0 
0 0 0 0 0 0 0 0 0 0 0 0 0 0 0 0 54 63 0 54 63 0 50 63 0 20 51 0 0 20 0 0 0 0 0 0 
0 0 0 0 0 0 0 0 0 0 0 0 0 0 0 0 54 63 0 54 63 0 50 63 0 20 51 0 0 20 0 0 0 0 0 0 
0 0 0 0 0 0 0 0 0 0 0 0 0 0 0 0 54 63 0 54 63 0 50 63 0 20 51 0 0 20 0 0 0 0 0 0 
0 0 0 0 0 0 0 0 0 0 0 0 0 0 0 0 54 63 0 54 63 0 50 63 0 20 51 0 0 20 0 0 0 0 0 0 
0 0 0 0 0 0 0 0 0 0 0 0 0 0 0 0 54 63 0 54 63 0 50 63 0 20 51 0 0 20 0 0 0 0 0 0 
0 0 0 0 0 0 0 0 0 0 0 0 0 0 0 0 54 63 0 54 63 0 50 63 0 20 51 0 0 20 0 0 0 0 0 0 
0 0 0 0 0 0 0 0 0 0 0 0 0 0 0 0 54 63 0 54 63 0 50 63 0 20 51 0 0 20 0 0 0 0 0 0 
0 0 0 0 0 0 0 0 0 0 0 0 0 0 0 0 54 63 0 54 63 0 50 63 0 20 51 0 0 20 0 0 0 0 0 0 