P2
36 36
255
0 0 0 0 0 0 0 0 0 0 0 0 0 0 0 0 0 0 0 0 0 0 0 224 0 0 0 0 232 224 0 0 0 0 0 0 
0 0 0 0 232 224 0 0 0 0 0 0 0 0 0 0 0 0 0 0 0 0 0 0 0 0 0 0 0 0 0 0 0 0 0 0 
0 0 0 0 0 0 0 0 0 0 0 0 0 0 0 0 0 0 0 0 0 0 0 0 0 0 0 0 0 0 0 0 0 0 0 0 
0 0 0 0 0 0 0 0 0 0 0 0 0 0 0 0 0 0 0 0 0 224 0 232 0 0 232 224 248 232 0 0 0 0 0 0 
0 0 232 224 248 232 0 0 0 0 0 0 0 0 0 0 0 0 0 0 0 0 0 0 0 0 0 0 0 0 0 0 0 0 0 0 
0 0 0 0 0 0 0 0 0 0 0 0 0 0 0 0 0 0 0 0 0 0 0 0 0 0 0 0 0 0 0 0 0 0 0 0 
0 0 0 0 0 0 0 0 0 0 0 0 0 0 0 0 0 0 0 224 0 232 0 232 232 224 248 232 248 240 0 0 0 0 0 0 
232 224 248 232 248 240 0 0 0 0 0 0 0 0 0 0 0 0 0 0 0 0 0 0 0 0 0 0 0 0 0 0 0 0 0 0 
0 0 0 0 0 0 0 0 0 0 0 0 0 0 0 0 0 0 0 0 0 0 0 0 0 0 0 0 0 0 0 0 0 0 0 0 
0 0 0 0 0 0 0 0 0 0 0 0 0 0 0 0 0 0 0 232 0 232 0 16 248 232 248 240 232 248 0 0 0 0 0 0 
248 232 248 240 232 248 0 0 0 0 0 0 0 0 0 0 0 0 0 0 0 0 0 0 0 0 0 0 0 0 0 0 0 0 0 0 
0 0 0 0 0 0 0 0 0 0 0 0 0 0 0 0 0 0 0 0 0 0 0 240 0 0 0 0 224 248 0 0 0 0 216 0 
0 0 0 0 0 0 0 0 0 0 0 0 0 0 0 0 0 0 0 232 0 16 0 248 248 240 232 248 240 16 0 0 0 0 200 0 
248 240 232 248 240 16 0 0 0 0 200 0 0 0 0 0 0 0 0 0 0 0 0 0 0 0 0 0 0 0 0 0 0 0 0 0 
0 0 0 0 0 0 0 0 0 0 0 0 0 0 0 0 208 240 0 0 0 240 240 248 0 0 224 248 232 240 0 0 216 0 208 0 
0 0 0 0 0 0 0 0 0 0 0 0 0 0 0 0 0 0 0 16 0 248 0 248 232 248 240 16 248 240 0 0 200 0 224 0 
232 248 240 16 248 240 0 0 200 0 224 0 0 0 0 0 0 0 0 0 0 0 0 0 0 0 0 0 0 0 0 0 0 0 216 248 
0 0 0 0 0 0 0 0 0 0 216 248 0 0 208 240 232 232 0 240 240 248 240 224 224 248 232 240 192 0 216 0 208 0 0 0 
0 0 0 0 0 0 0 0 0 0 0 0 0 0 0 0 0 0 0 248 0 248 0 0 240 16 248 240 232 16 200 0 224 0 248 224 
240 16 248 240 232 16 200 0 224 0 248 224 0 0 0 0 0 0 0 0 0 0 192 248 0 0 0 0 232 232 0 0 216 248 232 248 
0 0 0 0 232 232 0 0 216 248 232 248 208 240 232 232 224 224 240 248 240 224 0 0 232 240 192 0 0 0 208 0 0 0 0 0 
0 0 0 0 0 0 0 0 0 0 0 0 0 0 0 0 0 0 0 248 0 0 0 0 248 240 232 16 192 248 224 0 248 224 248 248 
248 240 232 16 192 248 224 0 248 224 248 248 0 0 0 0 240 248 0 0 192 248 232 240 0 0 232 232 232 232 216 248 232 248 192 0 
0 0 232 232 232 232 216 248 232 248 192 0 232 232 224 224 0 0 240 224 0 0 0 0 192 0 0 0 0 0 0 0 0 0 0 0 
0 0 0 0 0 0 0 0 0 0 0 0 0 0 0 0 0 0 0 0 0 0 0 0 232 16 192 248 0 224 248 224 248 248 200 240 
232 16 192 248 0 224 248 224 248 248 200 240 0 0 240 248 208 240 192 248 232 240 200 0 232 232 232 232 0 0 232 248 192 0 0 0 
232 232 232 232 0 0 232 248 192 0 0 0 224 224 0 0 0 0 0 0 0 0 0 0 0 0 0 0 0 0 0 0 0 0 0 0 
0 0 0 0 0 0 0 0 0 0 0 0 0 0 0 0 0 0 0 0 0 0 0 0 192 248 0 224 0 0 248 248 200 240 0 0 
192 248 0 224 0 0 248 248 200 240 0 0 240 248 208 240 0 0 232 240 200 0 0 0 232 232 0 0 0 0 192 0 0 0 0 0 
232 232 0 0 0 0 192 0 0 0 0 0 0 0 0 0 0 0 0 0 0 0 0 0 0 0 0 0 0 0 0 0 0 0 0 0 
0 0 0 0 0 0 0 0 0 0 0 0 0 0 0 0 0 0 0 0 0 0 0 0 0 224 0 0 0 0 200 240 0 0 0 0 
0 224 0 0 0 0 200 240 0 0 0 0 208 240 0 0 0 0 200 0 0 0 0 0 0 0 0 0 0 0 0 0 0 0 0 0 
0 0 0 0 0 0 0 0 0 0 0 0 0 0 0 0 0 0 0 0 0 0 0 0 0 0 0 0 0 0 0 0 0 0 0 0 
0 0 0 0 0 0 0 0 0 0 0 0 0 0 0 0 0 0 0 0 0 0 0 0 0 0 0 0 0 0 0 0 0 0 0 0 
0 0 0 0 0 0 0 0 0 0 0 0 0 0 0 0 0 0 0 0 0 0 0 0 0 0 0 0 0 0 0 0 0 0 0 0 
0 0 0 0 0 0 0 0 0 0 0 0 0 0 0 0 0 0 0 0 0 0 0 0 0 0 0 0 0 0 0 0 0 0 0 0 