P2
36 36
255
0 0 0 0 0 0 0 0 0 0 0 0 0 0 0 0 0 0 0 0 0 0 0 0 0 0 0 0 184 0 0 0 0 0 0 0 
0 0 0 0 184 0 0 0 0 0 0 0 0 0 0 0 0 0 0 0 0 0 0 0 0 0 0 0 0 0 0 0 0 0 0 0 
0 0 0 0 0 0 0 0 0 0 0 0 0 0 0 0 0 0 0 0 0 0 0 0 0 0 0 0 0 0 0 0 0 0 0 0 
0 0 0 0 0 0 0 0 0 0 0 0 0 0 0 0 0 0 0 0 0 0 200 0 0 0 184 0 232 0 0 0 0 0 0 0 
0 0 184 0 232 0 0 0 0 0 0 0 0 0 0 0 0 0 0 0 0 0 0 0 0 0 0 0 0 0 0 0 0 0 0 0 
0 0 0 0 0 0 0 0 0 0 0 0 0 0 0 0 0 0 0 0 0 0 0 0 0 0 0 0 0 0 0 0 0 0 0 0 
0 0 0 0 0 0 0 0 0 0 0 0 0 0 0 0 0 0 0 0 200 0 200 0 184 0 232 0 232 0 0 0 0 0 0 0 
184 0 232 0 232 0 0 0 0 0 0 0 0 0 0 0 0 0 0 0 0 0 0 0 0 0 0 0 0 0 0 0 0 0 0 0 
0 0 0 0 0 0 0 0 0 0 0 0 0 0 0 0 0 0 0 0 0 0 0 0 0 0 0 0 0 0 0 0 0 0 0 0 
0 0 0 0 0 0 0 0 0 0 0 0 0 0 0 0 0 0 200 0 200 0 192 0 232 0 232 0 224 0 0 0 0 0 0 0 
232 0 232 0 224 0 0 0 0 0 0 0 0 0 0 0 0 0 0 0 0 0 0 0 0 0 0 0 0 0 0 0 0 0 0 0 
0 0 0 0 0 0 0 0 0 0 0 0 0 0 0 0 0 0 0 0 0 0 0 0 0 0 0 0 184 0 0 0 0 0 0 0 
0 0 0 0 0 0 0 0 0 0 0 0 0 0 0 0 0 0 200 0 192 0 176 0 232 0 224 0 216 0 0 0 0 0 0 0 
232 0 224 0 216 0 0 0 0 0 0 0 0 0 0 0 0 0 0 0 0 0 0 0 0 0 0 0 0 0 0 0 0 0 0 0 
0 0 0 0 0 0 0 0 0 0 0 0 0 0 0 0 176 0 0 0 0 0 240 0 0 0 184 0 240 0 0 0 0 0 200 0 
0 0 0 0 0 0 0 0 0 0 0 0 0 0 0 0 0 0 192 0 176 0 0 0 224 0 216 0 224 0 0 0 0 0 184 0 
224 0 216 0 224 0 0 0 0 0 184 0 0 0 0 0 0 0 0 0 0 0 0 0 0 0 0 0 0 0 0 0 0 0 200 0 
0 0 0 0 0 0 0 0 0 0 200 0 0 0 176 0 240 0 0 0 240 0 240 0 184 0 240 0 216 0 0 0 200 0 0 0 
0 0 0 0 0 0 0 0 0 0 0 0 0 0 0 0 0 0 176 0 0 0 0 0 216 0 224 0 224 0 0 0 184 0 208 0 
216 0 224 0 224 0 0 0 184 0 208 0 0 0 0 0 0 0 0 0 0 0 0 0 0 0 0 0 224 0 0 0 200 0 240 0 
0 0 0 0 224 0 0 0 200 0 240 0 176 0 240 0 240 0 240 0 240 0 176 0 240 0 216 0 0 0 200 0 0 0 0 0 
0 0 0 0 0 0 0 0 0 0 0 0 0 0 0 0 0 0 0 0 0 0 0 0 224 0 224 0 216 0 184 0 208 0 240 0 
224 0 224 0 216 0 184 0 208 0 240 0 0 0 0 0 216 0 0 0 0 0 240 0 0 0 224 0 240 0 200 0 240 0 224 0 
0 0 224 0 240 0 200 0 240 0 224 0 240 0 240 0 0 0 240 0 176 0 0 0 216 0 0 0 0 0 0 0 0 0 0 0 
0 0 0 0 0 0 0 0 0 0 0 0 0 0 0 0 0 0 0 0 0 0 0 0 224 0 216 0 192 0 208 0 240 0 240 0 
224 0 216 0 192 0 208 0 240 0 240 0 0 0 216 0 240 0 0 0 240 0 240 0 224 0 240 0 184 0 240 0 224 0 0 0 
224 0 240 0 184 0 240 0 224 0 0 0 240 0 0 0 0 0 176 0 0 0 0 0 0 0 0 0 0 0 0 0 0 0 0 0 
0 0 0 0 0 0 0 0 0 0 0 0 0 0 0 0 0 0 0 0 0 0 0 0 216 0 192 0 0 0 240 0 240 0 0 0 
216 0 192 0 0 0 240 0 240 0 0 0 216 0 240 0 0 0 240 0 240 0 0 0 240 0 184 0 0 0 224 0 0 0 0 0 
240 0 184 0 0 0 224 0 0 0 0 0 0 0 0 0 0 0 0 0 0 0 0 0 0 0 0 0 0 0 0 0 0 0 0 0 
0 0 0 0 0 0 0 0 0 0 0 0 0 0 0 0 0 0 0 0 0 0 0 0 192 0 0 0 0 0 240 0 0 0 0 0 
192 0 0 0 0 0 240 0 0 0 0 0 240 0 0 0 0 0 240 0 0 0 0 0 184 0 0 0 0 0 0 0 0 0 0 0 
184 0 0 0 0 0 0 0 0 0 0 0 0 0 0 0 0 0 0 0 0 0 0 0 0 0 0 0 0 0 0 0 0 0 0 0 
0 0 0 0 0 0 0 0 0 0 0 0 0 0 0 0 0 0 0 0 0 0 0 0 0 0 0 0 0 0 0 0 0 0 0 0 
0 0 0 0 0 0 0 0 0 0 0 0 0 0 0 0 0 0 0 0 0 0 0 0 0 0 0 0 0 0 0 0 0 0 0 0 
0 0 0 0 0 0 0 0 0 0 0 0 0 0 0 0 0 0 0 0 0 0 0 0 0 0 0 0 0 0 0 0 0 0 0 0 