P2
14 14
255
0 0 0 0 0 0 0 0 0 0 0 0 0 0 
0 0 0 0 0 0 0 0 0 0 0 0 0 0 
0 0 72 255 255 228 140 140 140 131 45 0 0 0 
0 0 84 255 255 255 255 255 255 255 255 11 0 0 
0 0 25 255 255 255 255 255 255 255 255 165 0 0 
0 0 0 87 184 255 255 255 255 255 255 193 0 0 
0 0 0 0 0 0 0 91 255 255 255 14 0 0 
0 0 0 0 0 0 24 255 255 255 255 0 0 0 
0 0 0 0 0 0 159 255 255 255 4 0 0 0 
0 0 0 0 0 79 255 255 255 189 0 0 0 0 
0 0 0 0 19 255 255 255 255 0 0 0 0 0 
0 0 0 0 62 255 255 255 63 0 0 0 0 0 
0 0 0 0 0 255 255 255 0 0 0 0 0 0 
0 0 0 0 0 255 255 218 0 0 0 0 0 0 
