P2
14 14
255
0 0 0 0 0 0 0 0 0 0 0 0 0 0 
0 0 41 255 255 61 0 0 0 0 0 0 0 0 
0 0 227 255 255 255 255 255 255 255 255 0 0 0 
0 0 110 255 255 255 255 255 255 255 255 25 0 0 
0 0 0 255 255 255 255 255 255 255 255 147 0 0 
0 0 0 0 0 0 23 118 255 255 255 18 0 0 
0 0 0 0 0 0 0 255 255 255 255 0 0 0 
0 0 0 0 0 0 35 255 255 255 2 0 0 0 
0 0 0 0 0 13 255 255 255 198 0 0 0 0 
0 0 0 0 0 255 255 255 255 0 0 0 0 0 
0 0 0 0 112 255 255 255 87 0 0 0 0 0 
0 0 0 0 177 255 255 255 0 0 0 0 0 0 
0 0 0 0 0 255 255 211 0 0 0 0 0 0 
0 0 0 0 0 122 137 0 0 0 0 0 0 0 
