P2
13 13
255
0 0 0 0 0 0 0 0 0 0 0 0 0 
0 0 0 0 0 0 0 0 0 0 0 0 0 
0 0 255 255 255 255 255 255 255 255 158 0 0 
0 0 255 255 255 255 255 255 255 255 255 0 0 
0 0 52 79 169 255 255 255 255 255 255 0 0 
0 0 0 0 0 0 0 255 255 255 114 0 0 
0 0 0 0 0 0 0 255 255 255 0 0 0 
0 0 0 0 0 0 75 255 255 57 0 0 0 
0 0 0 0 0 136 255 255 255 0 0 0 0 
0 0 0 0 6 255 255 255 39 0 0 0 0 
0 0 0 0 255 255 255 172 0 0 0 0 0 
0 0 0 0 255 255 255 53 0 0 0 0 0 
0 0 0 0 0 0 0 0 0 0 0 0 0 
