P2
13 13
255
0 0 0 0 0 0 0 0 0 0 0 0 0 
0 0 0 0 0 0 0 0 0 0 0 0 0 
0 0 168 255 204 51 0 0 0 0 0 0 0 
0 0 255 255 255 255 255 255 255 255 255 0 0 
0 0 0 0 0 0 67 96 186 255 247 0 0 
0 0 0 0 0 0 0 103 255 176 30 0 0 
0 0 0 0 0 0 0 255 255 97 2 0 0 
0 0 0 0 0 0 94 247 129 28 0 0 0 
0 0 0 0 0 13 255 255 79 0 0 0 0 
0 0 0 0 0 255 255 150 12 0 0 0 0 
0 0 0 0 111 255 223 0 0 0 0 0 0 
0 0 0 0 255 255 223 32 0 0 0 0 0 
0 0 0 0 0 0 0 0 0 0 0 0 0 
