P2
14 14
255
0 0 0 0 0 0 0 0 0 0 0 0 0 0 
0 0 0 0 0 0 0 0 0 0 0 0 0 0 
0 0 203 255 255 255 255 255 255 255 124 0 0 0 
0 0 104 255 255 255 255 255 255 255 255 31 0 0 
0 0 0 102 216 255 255 255 255 255 255 98 0 0 
0 0 0 0 0 0 0 41 255 250 160 24 0 0 
0 0 0 0 0 0 0 177 255 255 101 0 0 0 
0 0 0 0 0 0 53 255 255 77 0 0 0 0 
0 0 0 0 0 2 255 255 227 63 0 0 0 0 
0 0 0 0 0 191 255 255 86 0 0 0 0 0 
0 0 0 0 43 255 255 230 2 0 0 0 0 0 
0 0 0 0 119 255 255 168 0 0 0 0 0 0 
0 0 0 0 0 255 255 173 0 0 0 0 0 0 
0 0 0 0 0 0 0 0 0 0 0 0 0 0 
