P2
13 13
255
0 0 0 0 0 0 0 0 0 0 0 0 0 
0 0 0 0 0 0 0 0 0 0 0 0 0 
0 0 0 0 0 0 0 0 0 0 0 0 0 
0 0 93 255 239 62 0 0 0 0 0 0 0 
0 0 0 21 105 214 255 255 255 255 150 0 0 
0 0 0 0 0 0 0 0 138 224 34 0 0 
0 0 0 0 0 0 0 73 208 207 0 0 0 
0 0 0 0 0 0 0 73 172 14 0 0 0 
0 0 0 0 0 0 49 209 167 0 0 0 0 
0 0 0 0 0 16 255 239 0 0 0 0 0 
0 0 0 0 0 168 208 92 0 0 0 0 0 
0 0 0 0 20 255 189 0 0 0 0 0 0 
0 0 0 0 0 0 0 0 0 0 0 0 0 
