P2
14 14
255
0 0 0 0 0 0 0 0 0 0 0 0 0 0 
0 0 0 0 0 0 0 0 0 0 0 0 0 0 
0 0 189 255 255 255 255 255 255 255 110 0 0 0 
0 0 90 255 255 255 255 255 255 255 254 17 0 0 
0 0 0 88 202 255 255 255 255 255 255 84 0 0 
0 0 0 0 0 0 0 27 255 236 146 10 0 0 
0 0 0 0 0 0 0 163 247 255 87 0 0 0 
0 0 0 0 0 0 39 255 255 63 0 0 0 0 
0 0 0 0 0 0 255 255 213 49 0 0 0 0 
0 0 0 0 0 177 255 255 72 0 0 0 0 0 
0 0 0 0 29 255 255 216 0 0 0 0 0 0 
0 0 0 0 105 255 255 154 0 0 0 0 0 0 
0 0 0 0 0 255 255 159 0 0 0 0 0 0 
0 0 0 0 0 0 0 0 0 0 0 0 0 0 
