P2
13 13
255
0 0 0 0 0 0 0 0 0 0 0 0 0 
0 0 0 0 0 0 0 0 0 0 0 0 0 
0 0 0 201 177 5 0 0 0 0 0 0 0 
0 0 108 255 255 255 233 238 233 233 13 0 0 
0 0 0 0 64 255 255 255 255 255 255 0 0 
0 0 0 0 0 0 0 0 255 255 28 0 0 
0 0 0 0 0 0 0 122 255 255 0 0 0 
0 0 0 0 0 0 0 242 255 0 0 0 0 
0 0 0 0 0 0 250 255 255 0 0 0 0 
0 0 0 0 0 10 255 255 0 0 0 0 0 
0 0 0 0 0 255 255 129 0 0 0 0 0 
0 0 0 0 0 255 255 0 0 0 0 0 0 
0 0 0 0 0 0 0 0 0 0 0 0 0 
