P2
14 14
255
0 0 0 0 0 0 0 0 0 0 0 0 0 0 
0 0 0 0 0 0 0 0 0 0 0 0 0 0 
0 0 0 0 0 0 0 0 0 0 0 0 0 0 
0 0 0 154 203 255 234 222 211 184 0 0 0 0 
0 0 0 3 198 242 229 220 220 250 44 0 0 0 
0 0 0 0 0 0 102 128 160 205 122 0 0 0 
0 0 0 0 0 0 0 0 46 95 57 0 0 0 
0 0 0 0 0 0 0 0 68 96 0 0 0 0 
0 0 0 0 0 0 0 74 56 60 0 0 0 0 
0 0 0 0 0 0 0 128 97 0 0 0 0 0 
0 0 0 0 0 0 77 146 54 0 0 0 0 0 
0 0 0 0 0 90 128 96 0 0 0 0 0 0 
0 0 0 0 0 0 204 20 0 0 0 0 0 0 
0 0 0 0 0 16 222 0 0 0 0 0 0 0 
