P2
14 14
255
0 0 0 0 0 0 0 0 0 0 0 0 0 0 
0 0 0 0 0 0 0 0 0 0 0 0 0 0 
0 0 0 227 239 62 0 0 0 0 0 0 0 0 
0 0 0 255 255 255 255 255 255 255 43 0 0 0 
0 0 0 115 255 255 255 255 255 255 234 2 0 0 
0 0 0 0 0 0 0 0 97 224 216 0 0 0 
0 0 0 0 0 0 0 0 162 198 145 0 0 0 
0 0 0 0 0 0 0 12 179 208 0 0 0 0 
0 0 0 0 0 0 39 239 178 106 0 0 0 0 
0 0 0 0 0 0 149 210 209 0 0 0 0 0 
0 0 0 0 0 108 189 255 50 0 0 0 0 0 
0 0 0 0 0 202 239 118 0 0 0 0 0 0 
0 0 0 0 0 128 255 132 0 0 0 0 0 0 
0 0 0 0 0 31 113 0 0 0 0 0 0 0 
