P2
14 14
255
0 0 0 0 0 0 0 0 0 0 0 0 0 0 
0 0 0 0 0 0 0 0 0 0 0 0 0 0 
0 0 0 255 255 255 233 238 229 233 13 0 0 0 
0 0 0 255 255 255 255 255 255 255 255 0 0 0 
0 0 0 67 255 255 255 255 255 255 255 0 0 0 
0 0 0 0 0 0 0 0 255 255 255 0 0 0 
0 0 0 0 0 0 0 0 255 255 254 0 0 0 
0 0 0 0 0 0 0 87 255 255 0 0 0 0 
0 0 0 0 0 0 153 255 255 160 0 0 0 0 
0 0 0 0 0 0 255 255 255 0 0 0 0 0 
0 0 0 0 0 255 255 255 34 0 0 0 0 0 
0 0 0 0 0 255 255 255 0 0 0 0 0 0 
0 0 0 0 0 98 255 207 0 0 0 0 0 0 
0 0 0 0 0 0 127 0 0 0 0 0 0 0 
