P2
14 14
255
0 0 0 0 0 0 0 0 0 0 0 0 0 0 
0 0 0 0 0 0 0 0 0 0 0 0 0 0 
0 0 98 255 255 255 255 255 255 255 61 0 0 0 
0 0 129 255 255 255 255 255 255 255 255 0 0 0 
0 0 0 255 255 255 255 255 255 255 255 49 0 0 
0 0 0 0 0 72 185 233 255 255 255 0 0 0 
0 0 0 0 0 0 0 151 255 255 255 0 0 0 
0 0 0 0 0 0 0 255 255 255 0 0 0 0 
0 0 0 0 0 0 255 255 255 255 0 0 0 0 
0 0 0 0 0 90 255 255 255 0 0 0 0 0 
0 0 0 0 0 255 255 255 206 0 0 0 0 0 
0 0 0 0 80 255 255 255 0 0 0 0 0 0 
0 0 0 0 0 255 255 255 0 0 0 0 0 0 
0 0 0 0 0 255 255 0 0 0 0 0 0 0 
