P2
36 32
255
135 158 138 144 146 168 146 91 133 73 150 73 99 68 91 0 88 74 0 0 0 0 0 0 0 0 0 0 0 0 0 0 0 0 0 0 
86 87 154 163 147 148 71 141 157 157 65 86 165 149 152 131 89 95 0 0 0 0 0 0 0 0 0 0 0 0 0 0 0 0 0 0 
86 158 88 163 96 129 163 131 165 142 157 157 89 92 76 105 137 91 0 0 0 0 0 0 0 0 0 0 0 0 0 0 0 0 0 0 
164 74 168 72 163 135 90 103 93 96 83 91 68 153 77 166 75 144 0 0 0 0 0 0 0 0 0 0 0 0 0 0 0 0 0 0 
152 151 70 81 65 136 142 149 84 83 148 149 142 137 85 90 157 151 0 0 0 0 0 0 0 0 0 0 0 0 0 0 0 0 0 0 
91 147 96 66 84 94 161 158 142 168 89 136 74 100 170 69 157 153 0 0 0 0 0 0 0 0 0 0 0 0 0 0 0 0 0 0 
145 91 72 96 69 132 85 81 78 0 153 156 148 153 144 145 150 137 0 0 0 0 0 0 0 0 0 0 0 0 0 0 0 0 0 0 
76 135 68 71 155 160 76 71 79 67 155 154 75 80 134 129 151 156 0 0 0 0 0 0 0 0 0 0 0 0 0 0 0 0 0 0 
0 0 0 0 0 0 135 158 138 144 146 168 146 91 133 73 150 73 99 68 91 0 88 74 0 0 0 0 0 0 0 0 0 0 0 0 
0 0 0 0 0 0 86 87 154 163 147 148 71 141 157 157 65 86 165 149 152 131 89 95 0 0 0 0 0 0 0 0 0 0 0 0 
0 0 0 0 0 0 86 158 88 163 96 129 163 131 165 142 157 157 89 92 76 105 137 91 0 0 0 0 0 0 0 0 0 0 0 0 
0 0 0 0 0 0 164 74 168 72 163 135 90 103 93 96 83 91 68 153 77 166 75 144 0 0 0 0 0 0 0 0 0 0 0 0 
0 0 0 0 0 0 152 151 70 81 65 136 142 149 84 83 148 149 142 137 85 90 157 151 0 0 0 0 0 0 0 0 0 0 0 0 
0 0 0 0 0 0 91 147 96 66 84 94 161 158 142 168 89 136 74 100 170 69 157 153 0 0 0 0 0 0 0 0 0 0 0 0 
0 0 0 0 0 0 145 91 72 96 69 132 85 81 78 0 153 156 148 153 144 145 150 137 0 0 0 0 0 0 0 0 0 0 0 0 
0 0 0 0 0 0 76 135 68 71 155 160 76 71 79 67 155 154 75 80 134 129 151 156 0 0 0 0 0 0 0 0 0 0 0 0 
0 0 0 0 0 0 0 0 0 0 0 0 135 158 138 144 146 168 146 91 133 73 150 73 99 68 91 0 88 74 0 0 0 0 0 0 
0 0 0 0 0 0 0 0 0 0 0 0 86 87 154 163 147 148 71 141 157 157 65 86 165 149 152 131 89 95 0 0 0 0 0 0 
0 0 0 0 0 0 0 0 0 0 0 0 86 158 88 163 96 129 163 131 165 142 157 157 89 92 76 105 137 91 0 0 0 0 0 0 
0 0 0 0 0 0 0 0 0 0 0 0 164 74 168 72 163 135 90 103 93 96 83 91 68 153 77 166 75 144 0 0 0 0 0 0 
0 0 0 0 0 0 0 0 0 0 0 0 152 151 70 81 65 136 142 149 84 83 148 149 142 137 85 90 157 151 0 0 0 0 0 0 
0 0 0 0 0 0 0 0 0 0 0 0 91 147 96 66 84 94 161 158 142 168 89 136 74 100 170 69 157 153 0 0 0 0 0 0 
0 0 0 0 0 0 0 0 0 0 0 0 145 91 72 96 69 132 85 81 78 0 153 156 148 153 144 145 150 137 0 0 0 0 0 0 
0 0 0 0 0 0 0 0 0 0 0 0 76 135 68 71 155 160 76 71 79 67 155 154 75 80 134 129 151 156 0 0 0 0 0 0 
0 0 0 0 0 0 0 0 0 0 0 0 0 0 0 0 0 0 135 158 138 144 146 168 146 91 133 73 150 73 99 68 91 0 88 74 
0 0 0 0 0 0 0 0 0 0 0 0 0 0 0 0 0 0 86 87 154 163 147 148 71 141 157 157 65 86 165 149 152 131 89 95 
0 0 0 0 0 0 0 0 0 0 0 0 0 0 0 0 0 0 86 158 88 163 96 129 163 131 165 142 157 157 89 92 76 105 137 91 
0 0 0 0 0 0 0 0 0 0 0 0 0 0 0 0 0 0 164 74 168 72 163 135 90 103 93 96 83 91 68 153 77 166 75 144 
0 0 0 0 0 0 0 0 0 0 0 0 0 0 0 0 0 0 152 151 70 81 65 136 142 149 84 83 148 149 142 137 85 90 157 151 
0 0 0 0 0 0 0 0 0 0 0 0 0 0 0 0 0 0 91 147 96 66 84 94 161 158 142 168 89 136 74 100 170 69 157 153 
0 0 0 0 0 0 0 0 0 0 0 0 0 0 0 0 0 0 145 91 72 96 69 132 85 81 78 0 153 156 148 153 144 145 150 137 
0 0 0 0 0 0 0 0 0 0 0 0 0 0 0 0 0 0 76 135 68 71 155 160 76 71 79 67 155 154 75 80 134 129 151 156 