P2
36 32
255
154 67 139 138 148 168 129 93 131 134 138 72 88 65 129 84 78 0 0 0 0 0 0 0 0 0 0 0 0 0 0 0 0 0 0 0 
107 77 135 86 162 71 89 87 154 77 144 67 144 70 166 143 101 65 0 0 0 0 0 0 0 0 0 0 0 0 0 0 0 0 0 0 
143 79 66 170 77 0 157 131 150 85 174 178 87 69 80 68 74 85 0 0 0 0 0 0 0 0 0 0 0 0 0 0 0 0 0 0 
145 132 152 151 157 92 87 134 82 176 84 138 145 111 145 159 136 152 0 0 0 0 0 0 0 0 0 0 0 0 0 0 0 0 0 0 
143 103 140 135 96 137 163 173 80 68 96 75 152 86 82 92 83 149 0 0 0 0 0 0 0 0 0 0 0 0 0 0 0 0 0 0 
138 149 87 136 81 166 151 133 162 159 140 146 101 157 137 169 165 114 0 0 0 0 0 0 0 0 0 0 0 0 0 0 0 0 0 0 
65 143 74 73 77 73 81 147 72 131 138 95 150 85 155 130 146 136 0 0 0 0 0 0 0 0 0 0 0 0 0 0 0 0 0 0 
154 167 115 160 136 74 138 144 98 139 130 72 69 68 95 72 146 70 0 0 0 0 0 0 0 0 0 0 0 0 0 0 0 0 0 0 
0 0 0 0 0 0 154 67 139 138 148 168 129 93 131 134 138 72 88 65 129 84 78 0 0 0 0 0 0 0 0 0 0 0 0 0 
0 0 0 0 0 0 107 77 135 86 162 71 89 87 154 77 144 67 144 70 166 143 101 65 0 0 0 0 0 0 0 0 0 0 0 0 
0 0 0 0 0 0 143 79 66 170 77 0 157 131 150 85 174 178 87 69 80 68 74 85 0 0 0 0 0 0 0 0 0 0 0 0 
0 0 0 0 0 0 145 132 152 151 157 92 87 134 82 176 84 138 145 111 145 159 136 152 0 0 0 0 0 0 0 0 0 0 0 0 
0 0 0 0 0 0 143 103 140 135 96 137 163 173 80 68 96 75 152 86 82 92 83 149 0 0 0 0 0 0 0 0 0 0 0 0 
0 0 0 0 0 0 138 149 87 136 81 166 151 133 162 159 140 146 101 157 137 169 165 114 0 0 0 0 0 0 0 0 0 0 0 0 
0 0 0 0 0 0 65 143 74 73 77 73 81 147 72 131 138 95 150 85 155 130 146 136 0 0 0 0 0 0 0 0 0 0 0 0 
0 0 0 0 0 0 154 167 115 160 136 74 138 144 98 139 130 72 69 68 95 72 146 70 0 0 0 0 0 0 0 0 0 0 0 0 
0 0 0 0 0 0 0 0 0 0 0 0 154 67 139 138 148 168 129 93 131 134 138 72 88 65 129 84 78 0 0 0 0 0 0 0 
0 0 0 0 0 0 0 0 0 0 0 0 107 77 135 86 162 71 89 87 154 77 144 67 144 70 166 143 101 65 0 0 0 0 0 0 
0 0 0 0 0 0 0 0 0 0 0 0 143 79 66 170 77 0 157 131 150 85 174 178 87 69 80 68 74 85 0 0 0 0 0 0 
0 0 0 0 0 0 0 0 0 0 0 0 145 132 152 151 157 92 87 134 82 176 84 138 145 111 145 159 136 152 0 0 0 0 0 0 
0 0 0 0 0 0 0 0 0 0 0 0 143 103 140 135 96 137 163 173 80 68 96 75 152 86 82 92 83 149 0 0 0 0 0 0 
0 0 0 0 0 0 0 0 0 0 0 0 138 149 87 136 81 166 151 133 162 159 140 146 101 157 137 169 165 114 0 0 0 0 0 0 
0 0 0 0 0 0 0 0 0 0 0 0 65 143 74 73 77 73 81 147 72 131 138 95 150 85 155 130 146 136 0 0 0 0 0 0 
0 0 0 0 0 0 0 0 0 0 0 0 154 167 115 160 136 74 138 144 98 139 130 72 69 68 95 72 146 70 0 0 0 0 0 0 
0 0 0 0 0 0 0 0 0 0 0 0 0 0 0 0 0 0 154 67 139 138 148 168 129 93 131 134 138 72 88 65 129 84 78 0 
0 0 0 0 0 0 0 0 0 0 0 0 0 0 0 0 0 0 107 77 135 86 162 71 89 87 154 77 144 67 144 70 166 143 101 65 
0 0 0 0 0 0 0 0 0 0 0 0 0 0 0 0 0 0 143 79 66 170 77 0 157 131 150 85 174 178 87 69 80 68 74 85 
0 0 0 0 0 0 0 0 0 0 0 0 0 0 0 0 0 0 145 132 152 151 157 92 87 134 82 176 84 138 145 111 145 159 136 152 
0 0 0 0 0 0 0 0 0 0 0 0 0 0 0 0 0 0 143 103 140 135 96 137 163 173 80 68 96 75 152 86 82 92 83 149 
0 0 0 0 0 0 0 0 0 0 0 0 0 0 0 0 0 0 138 149 87 136 81 166 151 133 162 159 140 146 101 157 137 169 165 114 
0 0 0 0 0 0 0 0 0 0 0 0 0 0 0 0 0 0 65 143 74 73 77 73 81 147 72 131 138 95 150 85 155 130 146 136 
0 0 0 0 0 0 0 0 0 0 0 0 0 0 0 0 0 0 154 167 115 160 136 74 138 144 98 139 130 72 69 68 95 72 146 70 