P2
36 32
255
65 66 129 68 68 0 0 66 66 0 130 129 68 71 65 0 130 65 69 69 65 65 65 67 0 65 129 132 0 0 129 66 129 135 132 0 
0 130 65 131 129 0 65 130 0 129 67 0 0 130 68 0 130 129 129 66 71 135 132 130 66 131 0 65 65 129 0 65 0 0 129 0 
0 65 67 65 68 65 65 129 0 0 71 66 0 66 65 68 65 0 133 133 71 136 134 130 130 131 73 131 131 129 0 129 71 129 130 0 
0 0 129 65 129 129 130 132 132 69 0 129 135 134 131 71 130 129 134 131 66 66 129 129 65 130 130 66 130 129 69 0 65 66 130 0 
65 65 131 135 131 129 68 0 132 0 132 129 129 0 68 69 130 0 134 66 66 66 65 129 132 65 65 65 0 130 65 69 69 65 130 129 
129 129 66 132 130 0 0 68 66 137 132 129 67 71 135 132 134 65 65 65 131 65 67 66 132 66 67 66 66 66 130 131 66 0 66 65 
0 65 66 66 66 65 129 67 66 130 65 65 129 70 66 134 133 129 130 69 69 140 132 129 129 69 68 135 131 0 131 0 66 134 131 0 
130 130 0 132 135 129 130 65 65 67 65 65 130 131 65 67 75 68 66 0 131 129 66 65 70 0 132 132 132 129 70 66 132 133 129 0 
0 66 69 74 76 67 129 129 66 70 76 66 129 66 72 69 73 0 129 66 67 129 65 0 129 0 66 68 65 65 130 129 67 70 65 0 
129 130 67 66 0 0 0 0 65 69 65 0 129 136 66 72 0 0 130 133 68 70 130 129 0 68 70 129 133 0 66 66 66 67 0 0 
129 130 131 67 0 0 0 129 130 66 0 0 70 68 65 130 73 69 70 129 0 0 74 70 67 0 131 129 71 65 67 67 0 136 131 129 
129 129 66 65 131 0 66 68 65 67 68 65 130 67 66 66 73 67 129 66 129 0 66 65 68 70 0 130 129 0 67 69 66 133 129 0 
130 129 65 130 130 0 130 66 66 68 65 0 65 130 130 67 72 65 67 67 134 67 66 65 67 69 134 133 131 0 65 129 133 0 68 0 
65 66 0 130 130 0 130 67 65 131 133 129 0 0 65 138 134 65 0 131 132 0 70 67 0 133 131 130 67 66 129 129 129 131 130 65 
65 66 65 65 0 0 66 65 65 129 129 0 67 68 69 67 68 65 70 66 129 69 72 0 66 131 132 70 68 0 66 65 0 65 129 0 
0 133 133 130 132 129 129 130 71 132 132 0 130 65 70 132 65 65 130 69 67 132 65 0 65 69 67 65 0 0 0 68 68 0 129 0 
65 0 130 133 133 129 0 130 65 131 135 129 130 130 69 132 134 129 131 130 131 69 67 129 129 129 135 71 68 0 130 0 131 69 67 0 
0 129 130 133 132 0 0 67 0 131 131 0 0 130 67 134 136 129 134 66 68 136 133 130 130 0 65 0 67 129 129 68 65 130 0 0 
0 130 134 73 69 0 0 134 138 71 67 0 0 135 132 75 129 0 130 132 69 130 0 0 129 67 67 0 129 0 65 66 129 129 0 0 
0 0 67 69 66 129 0 0 65 66 65 0 129 69 67 70 71 65 65 0 69 70 72 66 66 65 0 67 68 0 68 66 65 130 129 0 
0 131 134 136 134 130 66 0 129 133 135 130 67 66 133 68 131 0 67 65 132 75 67 0 0 65 70 69 0 0 65 65 66 73 67 0 
129 134 135 138 136 130 129 129 66 135 137 130 65 66 130 0 132 129 0 67 66 68 129 0 129 0 0 69 65 129 0 67 0 70 69 0 
65 68 65 68 67 0 0 66 68 65 132 130 0 67 65 129 138 130 65 70 68 0 132 0 132 66 65 134 132 0 132 66 130 135 131 0 
0 129 68 65 67 65 130 132 69 130 0 0 132 130 73 135 131 129 130 67 69 129 131 129 66 66 133 129 130 0 129 67 131 130 129 0 
129 133 131 131 0 65 129 65 0 129 66 65 68 68 130 68 67 0 67 68 133 132 130 0 65 0 129 66 66 0 132 130 129 72 71 65 
65 71 71 76 76 66 65 68 67 72 72 65 0 66 65 70 0 129 66 129 68 0 131 0 129 129 67 65 129 0 131 129 66 65 129 0 
65 66 131 65 0 0 0 131 66 0 135 129 131 129 69 138 140 131 134 65 67 131 129 130 131 130 129 0 66 0 131 65 65 133 130 0 
129 65 65 131 132 0 0 130 0 65 66 65 136 133 66 65 130 129 134 129 69 137 135 132 66 68 0 133 135 129 68 65 129 131 131 0 
0 68 71 72 71 66 133 0 68 72 72 66 134 0 67 129 71 0 65 67 130 131 130 0 0 67 131 129 130 129 129 130 129 65 0 129 
0 66 66 69 72 66 65 68 129 70 73 67 65 70 0 76 72 129 0 66 133 71 65 129 129 131 65 73 67 0 131 132 66 75 68 0 
0 130 71 71 129 0 129 136 72 65 129 0 130 135 70 132 129 0 130 136 70 67 129 0 129 137 67 70 129 0 0 135 65 71 0 0 
0 130 129 130 65 0 129 131 65 129 66 129 129 129 0 68 130 0 130 0 69 66 0 0 132 129 74 65 130 0 65 70 70 72 0 129 