P2
36 32
255
81 131 136 133 131 75 130 76 69 137 99 82 67 79 67 71 136 141 131 81 135 137 135 129 139 140 141 142 129 135 133 133 0 0 0 0 
141 68 65 68 131 131 135 137 76 86 135 130 131 129 132 72 129 142 91 72 139 138 135 129 138 71 137 131 136 136 100 73 0 0 0 0 
139 130 65 72 73 140 131 85 138 82 139 79 83 135 129 144 131 141 130 134 65 140 129 144 129 131 138 80 86 134 136 142 0 0 0 0 
135 81 139 78 84 146 135 69 141 139 130 135 138 0 135 141 83 79 132 134 136 78 133 143 138 134 82 75 135 136 132 138 0 0 0 0 
129 130 67 134 137 139 134 137 91 135 130 140 68 138 134 139 131 68 137 137 140 142 138 65 80 83 137 138 75 93 135 75 0 0 0 0 
136 144 138 139 138 84 74 141 140 132 133 135 136 89 68 134 78 76 66 66 134 65 129 88 67 132 90 130 130 136 134 136 0 0 0 0 
92 139 134 133 137 65 76 144 67 132 129 129 65 131 130 65 140 140 0 134 134 136 97 72 136 84 74 138 73 142 133 136 0 0 0 0 
137 139 71 78 80 135 138 65 139 66 131 135 138 132 90 137 0 134 131 80 91 77 131 135 139 136 137 71 131 80 135 80 0 0 0 0 
133 75 90 140 140 72 86 68 135 138 132 75 142 137 134 77 147 74 142 130 131 129 130 74 66 134 129 77 138 136 138 148 0 0 0 0 
68 68 138 139 135 72 141 129 132 135 129 140 76 134 139 79 72 76 132 146 78 84 131 133 87 145 134 145 144 66 66 80 0 0 0 0 
0 0 0 0 0 0 0 0 0 0 0 0 0 0 0 0 0 0 0 0 0 0 0 0 0 0 0 0 0 0 0 0 0 0 0 0 
0 0 0 0 0 0 0 0 0 0 0 0 0 0 0 0 0 0 0 0 0 0 0 0 0 0 0 0 0 0 0 0 0 0 0 0 
0 0 0 0 0 0 0 0 0 0 0 0 0 0 0 0 0 0 0 0 0 0 0 0 0 0 0 0 0 0 0 0 0 0 0 0 
0 0 0 0 0 0 0 0 0 0 0 0 0 0 0 0 0 0 0 0 0 0 0 0 0 0 0 0 0 0 0 0 0 0 0 0 
0 0 0 0 0 0 0 0 0 0 0 0 0 0 0 0 0 0 0 0 0 0 0 0 0 0 0 0 0 0 0 0 0 0 0 0 
0 0 0 0 0 0 0 0 0 0 0 0 0 0 0 0 0 0 0 0 0 0 0 0 0 0 0 0 0 0 0 0 0 0 0 0 
0 0 0 0 0 0 0 0 0 0 0 0 0 0 0 0 0 0 0 0 0 0 0 0 0 0 0 0 0 0 0 0 0 0 0 0 
0 0 0 0 0 0 0 0 0 0 0 0 0 0 0 0 0 0 0 0 0 0 0 0 0 0 0 0 0 0 0 0 0 0 0 0 
0 0 0 0 0 0 0 0 0 0 0 0 0 0 0 0 0 0 0 0 0 0 0 0 0 0 0 0 0 0 0 0 0 0 0 0 
0 0 0 0 0 0 0 0 0 0 0 0 0 0 0 0 0 0 0 0 0 0 0 0 0 0 0 0 0 0 0 0 0 0 0 0 
0 0 0 0 0 0 0 0 0 0 0 0 0 0 0 0 0 0 0 0 0 0 0 0 0 0 0 0 0 0 0 0 0 0 0 0 
0 0 0 0 0 0 0 0 0 0 0 0 0 0 0 0 0 0 0 0 0 0 0 0 0 0 0 0 0 0 0 0 0 0 0 0 
0 0 0 0 0 0 0 0 0 0 0 0 0 0 0 0 0 0 0 0 0 0 0 0 0 0 0 0 0 0 0 0 0 0 0 0 
0 0 0 0 0 0 0 0 0 0 0 0 0 0 0 0 0 0 0 0 0 0 0 0 0 0 0 0 0 0 0 0 0 0 0 0 
0 0 0 0 0 0 0 0 0 0 0 0 0 0 0 0 0 0 0 0 0 0 0 0 0 0 0 0 0 0 0 0 0 0 0 0 
0 0 0 0 0 0 0 0 0 0 0 0 0 0 0 0 0 0 0 0 0 0 0 0 0 0 0 0 0 0 0 0 0 0 0 0 
0 0 0 0 0 0 0 0 0 0 0 0 0 0 0 0 0 0 0 0 0 0 0 0 0 0 0 0 0 0 0 0 0 0 0 0 
0 0 0 0 0 0 0 0 0 0 0 0 0 0 0 0 0 0 0 0 0 0 0 0 0 0 0 0 0 0 0 0 0 0 0 0 
0 0 0 0 0 0 0 0 0 0 0 0 0 0 0 0 0 0 0 0 0 0 0 0 0 0 0 0 0 0 0 0 0 0 0 0 
0 0 0 0 0 0 0 0 0 0 0 0 0 0 0 0 0 0 0 0 0 0 0 0 0 0 0 0 0 0 0 0 0 0 0 0 
0 0 0 0 0 0 0 0 0 0 0 0 0 0 0 0 0 0 0 0 0 0 0 0 0 0 0 0 0 0 0 0 0 0 0 0 
0 0 0 0 0 0 0 0 0 0 0 0 0 0 0 0 0 0 0 0 0 0 0 0 0 0 0 0 0 0 0 0 0 0 0 0 